<svg xmlns="http://www.w3.org/2000/svg" width="45.518" height="50.406" viewBox="0 0 45.518 50.406"><defs><style>.a,.b{fill:none;stroke:#fff;}.a{stroke-width:4px;}</style></defs><g transform="translate(-0.76 5.756)"><g transform="translate(2.794 -0.256)"><path class="a" d="M44.157,29.4a1.779,1.779,0,0,0-1.436-1.21L30.555,26.425,25.114,15.4a1.779,1.779,0,0,0-3.19,0L16.482,26.425,4.316,28.193a1.779,1.779,0,0,0-.986,3.033l8.8,8.581L10.056,51.926A1.779,1.779,0,0,0,12.637,53.8l10.882-5.722L34.4,53.8a1.779,1.779,0,0,0,2.581-1.875L34.9,39.808l8.8-8.581a1.779,1.779,0,0,0,.45-1.823Z" transform="translate(-2.794 -11.148)"/><path class="b" d="M166.863,32.654a2.316,2.316,0,0,1-2.312-2.312.6.6,0,1,0-1.2,0,2.316,2.316,0,0,1-2.312,2.312.6.6,0,1,0,0,1.2,2.316,2.316,0,0,1,2.314,2.312.6.6,0,1,0,1.2,0,2.316,2.316,0,0,1,2.313-2.312.6.6,0,1,0,0-1.2Z" transform="translate(-126.391 -28.073)"/><path class="b" d="M126.863,2.654A2.316,2.316,0,0,1,124.551.342a.6.6,0,1,0-1.2,0,2.316,2.316,0,0,1-2.312,2.312.6.6,0,0,0,0,1.2,2.316,2.316,0,0,1,2.314,2.312.6.6,0,1,0,1.2,0,2.316,2.316,0,0,1,2.313-2.312.6.6,0,0,0,0-1.2Z" transform="translate(-95.285 -4.744)"/><path class="b" d="M38.863,27.654a2.316,2.316,0,0,1-2.312-2.312.6.6,0,1,0-1.2,0,2.316,2.316,0,0,1-2.312,2.312.6.6,0,0,0,0,1.2,2.316,2.316,0,0,1,2.314,2.312.6.6,0,1,0,1.2,0,2.316,2.316,0,0,1,2.313-2.312.6.6,0,1,0,0-1.2Z" transform="translate(-26.852 -24.185)"/></g></g></svg>