<svg xmlns="http://www.w3.org/2000/svg" width="60" height="60" viewBox="0 0 60 60"><defs><style>.a{fill:#fff;}</style></defs><g transform="translate(0 0)"><g transform="translate(0 0)"><path class="a" d="M59.648,10.944A15.531,15.531,0,0,0,55.6,4.4,15.531,15.531,0,0,0,49.056.352c-2.594-.726-4.83-.32-6.294,1.145L1.5,42.761C.032,44.226-.374,46.461.352,49.056A15.533,15.533,0,0,0,4.4,55.6a15.534,15.534,0,0,0,6.548,4.045,8.911,8.911,0,0,0,2.4.352,5.349,5.349,0,0,0,3.9-1.5L32.486,43.257l9.63,9.63L44.27,44.27l8.617-2.154-9.63-9.63L58.5,17.239C59.968,15.774,60.375,13.539,59.648,10.944ZM31.366,39.4,18.42,52.351c-.013-.048-.023-.094-.036-.142a15.533,15.533,0,0,0-4.045-6.548,15.534,15.534,0,0,0-6.548-4.045c-.048-.013-.095-.024-.142-.036L20.595,28.634c.519-.519,1.562-.609,2.861-.245a12.169,12.169,0,0,1,5.01,3.145,12.169,12.169,0,0,1,3.145,5.01C31.975,37.842,31.885,38.885,31.366,39.4ZM56.018,14.753l-12.59,12.59c-.013-.048-.023-.094-.036-.142a15.531,15.531,0,0,0-4.045-6.548A15.534,15.534,0,0,0,32.8,16.608c-.048-.013-.095-.024-.142-.036l12.59-12.59c.52-.519,1.562-.609,2.861-.245a12.167,12.167,0,0,1,5.01,3.145,12.168,12.168,0,0,1,3.145,5.01C56.627,13.191,56.537,14.233,56.018,14.753Z" transform="translate(0 0)"/></g></g></svg>