<svg xmlns="http://www.w3.org/2000/svg" width="44.903" height="68.5" viewBox="0 0 44.903 68.5"><defs><style>.a{fill:#fff;stroke:#fff;stroke-width:0.5px;}</style></defs><g transform="translate(0.251 0.25)"><path class="a" d="M40.184,9.18a1,1,0,1,0-1.612,1.169A20.062,20.062,0,0,1,42.41,22.2a21.372,21.372,0,0,1-3.522,11.693c-3.407,5.222-5.679,9.061-6.205,14.629a1.558,1.558,0,0,1-1.125,1.361.914.914,0,0,0-.118.029,1.58,1.58,0,0,1-.3.03H13.266a1.59,1.59,0,0,1-.3-.03.983.983,0,0,0-.118-.029,1.558,1.558,0,0,1-1.124-1.361c-.526-5.568-2.8-9.407-6.205-14.629A21.367,21.367,0,0,1,1.992,22.2,20.209,20.209,0,0,1,36,7.435a1,1,0,0,0,1.36-1.456A22.2,22.2,0,0,0,0,22.2,23.354,23.354,0,0,0,3.845,34.983C7.09,39.956,9.253,43.6,9.736,48.711a3.546,3.546,0,0,0,1.939,2.85V60.91a2.9,2.9,0,0,0,1.875,2.711A4.57,4.57,0,0,0,18.11,68h8.181a4.57,4.57,0,0,0,4.561-4.379,2.9,2.9,0,0,0,1.875-2.711V51.561a3.544,3.544,0,0,0,1.939-2.85c.483-5.113,2.646-8.755,5.89-13.727A23.357,23.357,0,0,0,44.4,22.2,22.036,22.036,0,0,0,40.184,9.18ZM19.908,55.8H30.735v1.817H13.667V55.8h2.257a1,1,0,0,0,0-1.992H13.667V51.935H30.735v1.878H19.908a1,1,0,0,0,0,1.992Zm9.97,6.009h-.031l-.042,0H14.6l-.042,0h-.032a.907.907,0,0,1-.857-.9v-1.3H30.735v1.3a.907.907,0,0,1-.857.9Zm-3.586,4.194H18.11a2.576,2.576,0,0,1-2.546-2.2H28.837a2.576,2.576,0,0,1-2.546,2.2Zm0,0"/><path class="a" d="M84.6,95.675a.294.294,0,0,1,.285-.208h.807a2.294,2.294,0,0,0,2.292-2.292V91.7a2.3,2.3,0,0,0-2.292-2.292h-.863a.3.3,0,0,1-.283-.2,11.439,11.439,0,0,0-.906-2.161.3.3,0,0,1,.053-.35l.619-.618a2.291,2.291,0,0,0,0-3.241L83.27,81.79a2.293,2.293,0,0,0-3.241,0l-.618.619a.3.3,0,0,1-.35.053,11.431,11.431,0,0,0-2.161-.906.3.3,0,0,1-.2-.283V80.41a2.294,2.294,0,0,0-2.292-2.292H72.929a2.294,2.294,0,0,0-2.292,2.292v.807a.3.3,0,0,1-.208.285,11.412,11.412,0,0,0-2.229.9.3.3,0,0,1-.344-.057l-.551-.552a2.291,2.291,0,0,0-3.241,0L63.02,82.834a2.291,2.291,0,0,0,0,3.241l.5.495a.3.3,0,0,1,.053.351,11.436,11.436,0,0,0-.974,2.281.3.3,0,0,1-.291.2H61.64A2.3,2.3,0,0,0,59.348,91.7v1.477a2.294,2.294,0,0,0,2.292,2.292h.612a.293.293,0,0,1,.286.206,11.42,11.42,0,0,0,.965,2.355.294.294,0,0,1-.057.345l-.426.426a2.291,2.291,0,0,0,0,3.241l1.044,1.044a2.291,2.291,0,0,0,3.241,0l.427-.426a.292.292,0,0,1,.344-.057,11.423,11.423,0,0,0,2.356.964.294.294,0,0,1,.205.286v.613a2.294,2.294,0,0,0,2.292,2.292h1.477a2.294,2.294,0,0,0,2.292-2.292V103.8a.3.3,0,0,1,.2-.291,11.423,11.423,0,0,0,2.281-.974.3.3,0,0,1,.351.053l.495.5a2.291,2.291,0,0,0,3.241,0l1.044-1.044a2.291,2.291,0,0,0,0-3.241l-.551-.552a.3.3,0,0,1-.057-.344,11.379,11.379,0,0,0,.9-2.229Zm-1.916-.545a9.447,9.447,0,0,1-.74,1.84,2.272,2.272,0,0,0,.407,2.686l.551.552a.3.3,0,0,1,0,.423l-1.044,1.044a.3.3,0,0,1-.423,0l-.5-.495a2.293,2.293,0,0,0-2.736-.381,9.431,9.431,0,0,1-1.883.8,2.306,2.306,0,0,0-1.619,2.2v.664a.3.3,0,0,1-.3.3H72.929a.3.3,0,0,1-.3-.3v-.613a2.294,2.294,0,0,0-1.653-2.2,9.423,9.423,0,0,1-1.944-.8,2.251,2.251,0,0,0-1.082-.275,2.3,2.3,0,0,0-1.626.671l-.427.426a.3.3,0,0,1-.423,0l-1.044-1.044a.3.3,0,0,1,0-.423l.426-.426a2.3,2.3,0,0,0,.4-2.709,9.424,9.424,0,0,1-.8-1.944,2.294,2.294,0,0,0-2.2-1.653h-.613a.3.3,0,0,1-.3-.3V91.7a.3.3,0,0,1,.3-.3H62.3a2.307,2.307,0,0,0,2.2-1.619,9.412,9.412,0,0,1,.8-1.883,2.294,2.294,0,0,0-.381-2.736l-.5-.5a.3.3,0,0,1,0-.423L65.473,83.2a.3.3,0,0,1,.423,0l.551.552a2.273,2.273,0,0,0,2.687.407,9.429,9.429,0,0,1,1.839-.74,2.294,2.294,0,0,0,1.655-2.2v-.807a.3.3,0,0,1,.3-.3h1.477a.3.3,0,0,1,.3.3v.863a2.272,2.272,0,0,0,1.618,2.19,9.439,9.439,0,0,1,1.783.748,2.3,2.3,0,0,0,2.714-.393l.619-.619a.3.3,0,0,1,.423,0l1.044,1.044a.3.3,0,0,1,0,.423l-.618.618A2.3,2.3,0,0,0,81.894,88a9.44,9.44,0,0,1,.748,1.784,2.271,2.271,0,0,0,2.19,1.617h.863a.3.3,0,0,1,.3.3v1.477a.3.3,0,0,1-.3.3h-.807a2.3,2.3,0,0,0-2.2,1.656Zm0,0" transform="translate(-51.466 -67.743)"/><path class="a" d="M119.726,131.23a7.266,7.266,0,1,0,7.265,7.265A7.273,7.273,0,0,0,119.726,131.23Zm0,12.539A5.273,5.273,0,1,1,125,138.5,5.279,5.279,0,0,1,119.726,143.769Zm0,0" transform="translate(-97.525 -113.801)"/></g></svg>