<svg xmlns="http://www.w3.org/2000/svg" width="60.874" height="40.537" viewBox="0 0 60.874 40.537"><defs><style>.a{fill:none;stroke:#fff;stroke-width:4px;}</style></defs><g transform="translate(2.004 2.019)"><g transform="translate(0 0)"><path class="a" d="M56.533,112.907a4.124,4.124,0,0,0-2.221-2.221v-14.4a2.475,2.475,0,0,0,.381-.952,1.713,1.713,0,0,0-.952-1.523L27.983,82.264a1.459,1.459,0,0,0-1.269,0L.956,93.811A1.523,1.523,0,0,0,0,95.333a1.459,1.459,0,0,0,1.079,1.4L9.9,99.774v11.42a1.586,1.586,0,0,0,.634,1.269,1.522,1.522,0,0,0,1.459.19,43.9,43.9,0,0,1,30.644,0l.571.127a1.522,1.522,0,0,0,.888-.317,1.459,1.459,0,0,0,.7-1.269V99.711l6.344-2.094v13.07a4.124,4.124,0,1,0,5.393,2.221Z" transform="translate(0 -82.118)"/></g></g></svg>