<svg xmlns="http://www.w3.org/2000/svg" width="43.581" height="36.817" viewBox="0 0 43.581 36.817"><defs><style>.a{fill:none;stroke:#fff;stroke-width:3px;}</style></defs><g transform="translate(1.5 1.5)"><path class="a" d="M19.836,9.609a1.691,1.691,0,0,1-1.691-1.691V5.382H11.382V7.918A1.691,1.691,0,1,1,8,7.918V5.382A3.385,3.385,0,0,1,11.382,2h6.763a3.385,3.385,0,0,1,3.382,3.382V7.918A1.691,1.691,0,0,1,19.836,9.609Z" transform="translate(5.527 -2)"/><path class="a" d="M21.491,17.978a3.483,3.483,0,0,1-1.2.2,3.705,3.705,0,0,1-1.3-.237L0,11.62v12.9a4.647,4.647,0,0,0,4.65,4.65H35.931a4.647,4.647,0,0,0,4.65-4.65V11.62Z" transform="translate(0 4.646)"/><path class="a" d="M40.581,9.65v3.872L20.7,20.15a1.251,1.251,0,0,1-.812,0L0,13.522V9.65A4.647,4.647,0,0,1,4.65,5H35.931A4.647,4.647,0,0,1,40.581,9.65Z" transform="translate(0 0.073)"/></g></svg>