<svg xmlns="http://www.w3.org/2000/svg" width="83" height="83" viewBox="0 0 83 83"><defs><style>.a{fill:#d80027;}.b{fill:#35a429;}</style></defs><g transform="translate(-0.328 -0.093)"><circle class="a" cx="41.5" cy="41.5" r="41.5" transform="translate(0.328 0.093)"/><path class="b" d="M153.584,117.928H134.917l-5.769-17.754-5.769,17.754H104.712l15.1,10.972-5.769,17.754,15.1-10.973,15.1,10.973L138.482,128.9Zm-29.543,9.6,1.951-6H132.3l1.951,6h0l-5.107,3.71-5.107-3.71Zm7.095-9.6H127.16l1.988-6.118Zm6.177,7.377-1.229-3.781h6.433Zm-15.1-3.781-1.229,3.781-5.2-3.781Zm-1.326,15.718,1.988-6.118,3.217,2.337Zm11.322-3.781,3.217-2.337,1.988,6.118Z" transform="translate(-87.783 -83.994)"/></g></svg>