<svg xmlns="http://www.w3.org/2000/svg" width="83" height="83.093" viewBox="0 0 83 83.093"><defs><style>.a{fill:#f0f0f0;}.b{fill:#0052b4;}.c{fill:#d80027;}</style></defs><g transform="translate(0.233 0)"><circle class="a" cx="41.5" cy="41.5" r="41.5" transform="translate(-0.233 0.093)"/><g transform="translate(1.424 1.424)"><path class="b" d="M15.942,100.142A41.2,41.2,0,0,0,8.819,114.53H30.33Z" transform="translate(-8.819 -85.391)"/><path class="b" d="M391.516,114.531a41.2,41.2,0,0,0-7.123-14.388l-14.387,14.388Z" transform="translate(-311.666 -85.392)"/><path class="b" d="M8.819,322.784a41.2,41.2,0,0,0,7.123,14.387l14.387-14.387Z" transform="translate(-8.819 -272.072)"/><path class="b" d="M337.17,15.942a41.2,41.2,0,0,0-14.388-7.123V30.33Z" transform="translate(-272.071 -8.819)"/><path class="b" d="M100.142,384.392a41.2,41.2,0,0,0,14.388,7.123V370.005Z" transform="translate(-85.391 -311.666)"/><path class="b" d="M114.529,8.819a41.2,41.2,0,0,0-14.387,7.123L114.529,30.33Z" transform="translate(-85.391 -8.819)"/><path class="b" d="M322.783,391.516a41.2,41.2,0,0,0,14.387-7.123l-14.387-14.387Z" transform="translate(-272.071 -311.666)"/><path class="b" d="M370.005,322.784l14.387,14.388a41.2,41.2,0,0,0,7.123-14.388Z" transform="translate(-311.666 -272.072)"/></g><g transform="translate(0 0)"><path class="c" d="M82.348,35.956H46.743V.35a41.729,41.729,0,0,0-10.787,0V35.956H.35a41.729,41.729,0,0,0,0,10.787H35.956V82.348a41.729,41.729,0,0,0,10.787,0V46.743H82.348a41.729,41.729,0,0,0,0-10.787Z" transform="translate(0 0)"/><path class="c" d="M322.783,322.783h0l18.451,18.451q1.273-1.272,2.431-2.655l-15.8-15.8h-5.085Z" transform="translate(-270.647 -270.647)"/><path class="c" d="M93.432,322.784h0L74.98,341.235q1.272,1.273,2.655,2.431l15.8-15.8Z" transform="translate(-62.869 -270.648)"/><path class="c" d="M80.815,93.432h0L62.364,74.98q-1.273,1.272-2.431,2.655l15.8,15.8h5.085Z" transform="translate(-50.253 -62.869)"/><path class="c" d="M322.783,80.816h0l18.452-18.452q-1.272-1.273-2.655-2.43l-15.8,15.8Z" transform="translate(-270.647 -50.253)"/></g></g></svg>