<svg xmlns="http://www.w3.org/2000/svg" width="89.763" height="87.519" viewBox="0 0 89.763 87.519"><defs><style>.a{fill:#470137;}.b{fill:#ff61f6;}</style></defs><path class="a" d="M15.9,0H73.867a15.882,15.882,0,0,1,15.9,15.9V71.623a15.882,15.882,0,0,1-15.9,15.9H15.9A15.882,15.882,0,0,1,0,71.623V15.9A15.882,15.882,0,0,1,15.9,0Z"/><g transform="translate(13.076 19.181)"><path class="b" d="M69.085,60.561,57.865,79.075,69.833,98.71a.644.644,0,0,1,.075.449c-.037.15-.187.037-.411.075H60.932c-.6,0-1.01-.037-1.272-.411-.785-1.571-1.608-3.1-2.394-4.675-.785-1.533-1.646-3.1-2.543-4.713s-1.8-3.217-2.693-4.862h-.075c-.785,1.608-1.646,3.216-2.506,4.825s-1.72,3.217-2.543,4.787c-.86,1.571-1.72,3.179-2.581,4.713-.15.374-.449.411-.86.411H35.237c-.15,0-.262.075-.262-.112a.519.519,0,0,1,.075-.411L46.682,79.71,35.349,60.524c-.112-.15-.15-.3-.075-.374a.434.434,0,0,1,.374-.15h8.49a2.208,2.208,0,0,1,.524.075,1.061,1.061,0,0,1,.374.337c.711,1.608,1.533,3.216,2.394,4.825.9,1.608,1.758,3.179,2.693,4.75.9,1.571,1.72,3.142,2.506,4.75H52.7c.785-1.646,1.608-3.254,2.431-4.825s1.683-3.142,2.543-4.713,1.683-3.179,2.506-4.713a.636.636,0,0,1,.224-.374.713.713,0,0,1,.486-.075h7.892a.345.345,0,0,1,.411.262c.037.037-.037.187-.112.262Z" transform="translate(-34.961 -56.74)"/><path class="b" d="M146.044,94.563A18.594,18.594,0,0,1,138,92.88a13.039,13.039,0,0,1-5.648-5.087,16.183,16.183,0,0,1-2.057-8.527,15.361,15.361,0,0,1,2.057-7.892,15.532,15.532,0,0,1,5.947-5.8,19.131,19.131,0,0,1,9.462-2.169,6.679,6.679,0,0,1,.785.037c.337.037.711.037,1.159.075V51.7c0-.262.112-.411.374-.411h7.592a.335.335,0,0,1,.374.262V87.233c0,.673.037,1.421.075,2.244.075.785.112,1.533.15,2.169a.607.607,0,0,1-.374.6,28.564,28.564,0,0,1-6.1,1.8A32.991,32.991,0,0,1,146.044,94.563Zm3.665-7.48V70.627a9.568,9.568,0,0,0-1.01-.187c-.411-.037-.823-.075-1.234-.075a9.22,9.22,0,0,0-4.226.972,8.385,8.385,0,0,0-3.179,2.768,8.291,8.291,0,0,0-1.234,4.75,10.423,10.423,0,0,0,.636,3.852,7.31,7.31,0,0,0,1.683,2.655,6.461,6.461,0,0,0,2.543,1.5,9.79,9.79,0,0,0,3.1.486c.561,0,1.085-.037,1.571-.075a3.271,3.271,0,0,0,1.346-.187Z" transform="translate(-94.64 -51.284)"/></g></svg>