<svg xmlns="http://www.w3.org/2000/svg" width="89.763" height="87.519" viewBox="0 0 89.763 87.519"><defs><style>.a{fill:#00005b;}.b{fill:#99f;}</style></defs><path class="a" d="M15.9,0H73.867a15.882,15.882,0,0,1,15.9,15.9V71.623a15.882,15.882,0,0,1-15.9,15.9H15.9A15.882,15.882,0,0,1,0,71.623V15.9A15.882,15.882,0,0,1,15.9,0Z"/><g transform="translate(21.319 22.254)"><path class="b" d="M57,98.622V60.136c0-.262.112-.411.374-.411.636,0,1.234,0,2.094-.037.9-.037,1.833-.037,2.842-.075s2.094-.037,3.254-.075,2.281-.037,3.4-.037a21.992,21.992,0,0,1,7.7,1.159,13.356,13.356,0,0,1,5.012,3.067,11.908,11.908,0,0,1,2.73,4.264,14.315,14.315,0,0,1,.86,4.862,13.371,13.371,0,0,1-2.244,7.966,12.814,12.814,0,0,1-6.022,4.563,24.24,24.24,0,0,1-8.415,1.272c-.9,0-1.5,0-1.87-.037s-.9-.037-1.608-.037V98.584a.465.465,0,0,1-.411.524H57.449c-.3,0-.449-.15-.449-.486Zm8.153-31.679V79.51c.524.037,1.01.075,1.459.075h1.982a13.971,13.971,0,0,0,4.3-.673,6.432,6.432,0,0,0,3.067-1.982,5.779,5.779,0,0,0,1.159-3.852,6.156,6.156,0,0,0-.86-3.329,5.424,5.424,0,0,0-2.618-2.132,10.975,10.975,0,0,0-4.413-.748c-.972,0-1.833,0-2.543.037a8.564,8.564,0,0,0-1.533.037Z" transform="translate(-57 -59.5)"/><path class="b" d="M145.962,84.128h6.545a.842.842,0,0,1,.785.6,3.8,3.8,0,0,1,.224.935c.075.374.15.785.187,1.159.037.411.075.86.075,1.346a13.92,13.92,0,0,1,4-3.216,11.591,11.591,0,0,1,5.685-1.459.465.465,0,0,1,.524.411v7.443c0,.3-.187.411-.6.411a16.263,16.263,0,0,0-4.039.374,15.39,15.39,0,0,0-3.142,1.01,5.814,5.814,0,0,0-1.907,1.384V113.6c0,.374-.15.524-.486.524h-7.368a.517.517,0,0,1-.6-.449V92.8c0-.9,0-1.833-.037-2.805s-.037-1.945-.075-2.917c0-.86-.075-1.683-.15-2.543a.345.345,0,0,1,.262-.411c0-.037.075-.037.112,0Z" transform="translate(-112.451 -74.516)"/></g></svg>