<svg xmlns="http://www.w3.org/2000/svg" width="89.763" height="87.519" viewBox="0 0 89.763 87.519"><defs><style>.a{fill:#300;}.b{fill:#ff9a00;}</style></defs><path class="a" d="M15.9,0H73.867a15.882,15.882,0,0,1,15.9,15.9V71.623a15.882,15.882,0,0,1-15.9,15.9H15.9A15.882,15.882,0,0,1,0,71.623V15.9A15.882,15.882,0,0,1,15.9,0Z"/><g transform="translate(18.547 19.411)"><path class="b" d="M74.541,90.008H60.627L57.785,98.8a.655.655,0,0,1-.711.524H50.043c-.411,0-.524-.224-.411-.673L61.675,63.977c.112-.374.224-.785.374-1.234a13.065,13.065,0,0,0,.224-2.431.371.371,0,0,1,.3-.411h9.687c.3,0,.449.112.486.3L86.4,98.722c.112.411,0,.6-.374.6H78.206a.565.565,0,0,1-.6-.411ZM62.8,82.415h9.5c-.224-.785-.524-1.72-.86-2.693-.337-1.01-.673-2.094-1.01-3.216-.374-1.159-.711-2.281-1.085-3.441s-.711-2.244-1.01-3.329c-.3-1.047-.561-2.02-.823-2.917h-.075a45.918,45.918,0,0,1-1.272,4.825c-.561,1.8-1.122,3.665-1.72,5.535-.524,1.907-1.085,3.665-1.646,5.236Z" transform="translate(-49.59 -56.908)"/><path class="b" d="M162.1,61.288a4.629,4.629,0,0,1-3.329-1.309,4.859,4.859,0,0,1-1.272-3.441,4.4,4.4,0,0,1,1.346-3.329,4.79,4.79,0,0,1,3.329-1.309,4.479,4.479,0,0,1,3.4,1.309,5.142,5.142,0,0,1-.075,6.77A4.4,4.4,0,0,1,162.1,61.288Zm-4.189,32.464v-28.8c0-.374.15-.524.486-.524H165.8c.337,0,.486.187.486.524v28.8c0,.411-.15.6-.486.6h-7.331A.523.523,0,0,1,157.908,93.752Z" transform="translate(-117.137 -51.9)"/></g></svg>