<svg xmlns="http://www.w3.org/2000/svg" width="67.523" height="75.964" viewBox="0 0 67.523 75.964"><defs><style>.a{fill:#a9b9cb;}.b{fill:#7f8b99;}.c{fill:#fff;}</style></defs><path class="a" d="M67.52,23.333a6.713,6.713,0,0,0-.825-3.375,6.451,6.451,0,0,0-2.443-2.382Q50.768,9.794,37.278,2.022a6.617,6.617,0,0,0-7.176.071C26.524,4.206,8.61,14.479,3.272,17.574A6.242,6.242,0,0,0,0,23.331Q0,38.982,0,54.632a6.744,6.744,0,0,0,.789,3.31,6.429,6.429,0,0,0,2.48,2.447C8.607,63.485,26.523,73.757,30.1,75.87a6.618,6.618,0,0,0,7.178.071q13.48-7.791,26.976-15.554a6.431,6.431,0,0,0,2.48-2.447,6.753,6.753,0,0,0,.789-3.31s0-20.862,0-31.3" transform="translate(0 -1)"/><path class="b" d="M37.217,2.287a6.611,6.611,0,0,0-7.165.071C26.48,4.465,8.6,14.711,3.267,17.8A6.225,6.225,0,0,0,0,23.541Q0,39.151,0,54.761a6.72,6.72,0,0,0,.788,3.3A6.414,6.414,0,0,0,3.264,60.5q2.657,1.536,5.318,3.065L57.929,14.22Q47.572,8.256,37.217,2.287" transform="translate(0 -1.197)"/><path class="c" d="M82.978,85.026l10.508.074c0-4.378-4.432-15.1-17.137-15.1-8.1,0-18.978,5.147-18.978,19.943s10.668,19.621,18.978,19.621c13.456,0,16.672-9.311,16.672-14.573L83,94.418s.268,6.086-6.7,6.086c-6.433,0-7.507-7.881-7.507-10.561,0-4.074,1.449-10.615,7.507-10.615a6.5,6.5,0,0,1,6.683,5.7" transform="translate(-42.239 -51.8)"/></svg>