<svg xmlns="http://www.w3.org/2000/svg" width="74.919" height="105.748" viewBox="0 0 74.919 105.748"><defs><style>.a{fill:#264de4;}.b{fill:#2965f1;}.c{fill:#ebebeb;}.d{fill:#fff;}</style></defs><path class="a" d="M40.611,575.065l-30.6-8.494L3.2,490.1H78.119L71.3,566.558l-30.685,8.507Z" transform="translate(-3.2 -469.317)"/><path class="b" d="M911.29,702.839l5.831-65.339H886.5v72.213l24.79-6.874Z" transform="translate(-849.043 -610.466)"/><path class="c" d="M333.588,877.681l.84,9.38h20.987v-9.38ZM331.9,858.7l.852,9.38h22.666V858.7Zm23.518,43.339-.042.013-10.445-2.82-.666-7.481h-9.414l1.315,14.728,19.214,5.335.042-.013v-9.762Z" transform="translate(-317.961 -822.286)"/><path class="d" d="M418.9,0h11.361V4.749h-6.607V9.5h6.611v4.749H418.9Zm13.634,0h11.361V4.13h-6.611v.827h6.611v9.5H432.534V10.118h6.611V9.291h-6.611V0Zm13.629,0h11.361V4.13h-6.611v.827h6.611v9.5H446.163V10.118h6.611V9.291h-6.607l0-9.291Z" transform="translate(-401.272)"/><path class="d" d="M907.405,877.585,909.1,858.6H885.6v9.38h13.214l-.853,9.6H885.6v9.38h11.547l-1.09,12.162L885.6,901.952v9.758l19.227-5.331.14-1.586,2.205-24.693.233-2.515Z" transform="translate(-848.181 -822.19)"/></svg>