<svg xmlns="http://www.w3.org/2000/svg" width="58.346" height="87.519" viewBox="0 0 58.346 87.519"><defs><style>.a{fill:#0acf83;}.b{fill:#a259ff;}.c{fill:#f24e1e;}.d{fill:#ff7262;}.e{fill:#1abcfe;}</style></defs><path class="a" d="M14.586,229.173a14.592,14.592,0,0,0,14.586-14.586V200H14.586a14.586,14.586,0,1,0,0,29.173Z" transform="translate(0 -141.654)"/><path class="b" d="M0,114.586A14.592,14.592,0,0,1,14.586,100H29.173v29.173H14.586A14.592,14.592,0,0,1,0,114.586Z" transform="translate(0 -70.827)"/><path class="c" d="M0,14.586A14.592,14.592,0,0,1,14.586,0H29.173V29.173H14.586A14.592,14.592,0,0,1,0,14.586Z"/><path class="d" d="M100,0h14.586a14.586,14.586,0,0,1,0,29.173H100Z" transform="translate(-70.827)"/><path class="e" d="M129.173,114.586A14.586,14.586,0,1,1,114.586,100,14.592,14.592,0,0,1,129.173,114.586Z" transform="translate(-70.827 -70.827)"/></svg>