<svg xmlns="http://www.w3.org/2000/svg" width="74.919" height="105.748" viewBox="0 0 74.919 105.748"><defs><style>.a{fill:#e44d26;}.b{fill:#f16529;}.c{fill:#ebebeb;}.d{fill:#fff;}</style></defs><path class="a" d="M96.028,286.745,89.21,210.273h74.919l-6.825,76.46-30.68,8.506Z" transform="translate(-89.21 -189.491)"/><path class="b" d="M306,318.671l24.791-6.873,5.833-65.339H306Z" transform="translate(-268.541 -219.424)"/><path class="c" d="M193.41,319.724H181l-.857-9.6H193.41V300.74H169.892l.225,2.516,2.305,25.846H193.41Z" transform="translate(-155.951 -264.326)"/><path class="c" d="M207.527,502.313l-.041.011L197.04,499.5l-.668-7.48h-9.415l1.314,14.726,19.212,5.333.043-.012Z" transform="translate(-170.067 -422.557)"/><path class="d" d="M129.55,90h4.766v4.709h4.36V90h4.767v14.26h-4.766V99.485h-4.36v4.775H129.55V90Z" transform="translate(-122.58 -90)"/><path class="d" d="M226.14,94.729h-4.2V90H235.1v4.729h-4.2v9.531H226.14V94.729Z" transform="translate(-199.009 -90)"/><path class="d" d="M310.2,90h4.97l3.057,5.011L321.277,90h4.972v14.26H321.5V97.192l-3.279,5.07h-.082l-3.281-5.07v7.068H310.2V90Z" transform="translate(-272.012 -90)"/><path class="d" d="M416.829,90H421.6v9.547h6.7v4.714H416.829Z" transform="translate(-360.219 -90)"/><path class="d" d="M305.812,410.6v9.379h11.549l-1.089,12.164-10.461,2.823v9.758l19.227-5.329.141-1.584,2.2-24.692.229-2.518h-21.8Z" transform="translate(-268.385 -355.207)"/><path class="d" d="M305.812,300.74v9.379h22.655l.188-2.108.427-4.755.224-2.516Z" transform="translate(-268.385 -264.326)"/></svg>