<svg xmlns="http://www.w3.org/2000/svg" width="75.069" height="105.75" viewBox="0 0 75.069 105.75"><defs><style>.a{fill:#e6a329;}.b{fill:#f1bf22;}.c{fill:#fff;}.d{fill:#ebebeb;}</style></defs><g transform="translate(0 0)"><path class="a" d="M105.669,36.4H30.6l6.994,76.375,30.587,8.673h0l30.494-8.673Z" transform="translate(-30.6 -15.698)"/><path class="b" d="M70.9,43.1v72.272h0l24.712-6.994L101.58,43.1Z" transform="translate(-33.319 -16.15)"/><path class="c" d="M89.059,53.1H51.011L48.4,81.729v-.186H80.666L79.64,93.665,69.382,96.556,58.938,93.572,58.285,86.3H48.773l1.4,14.548,19.21,5.5,19.21-5.5L91.2,72.217H56.979l.373-9.605h23.78l.373,5.5H91.11Z" transform="translate(-31.801 -16.824)"/><g transform="translate(16.599 36.276)"><path class="d" d="M69.382,53.1H51.011L48.4,81.729l.093-.186H69.475V72.217H58.285l.466-9.605H69.382Zm-11.1,33.2H48.773l1.4,14.641,19.21,5.409V96.556L58.938,93.572Z" transform="translate(-48.4 -53.1)"/></g><g transform="translate(23.593)"><path class="c" d="M62.521,23.619H55.9v4.849H67.37V14.2H62.521Z" transform="translate(-55.9 -14.2)"/><path class="c" d="M85.057,14.3H73.4v5.036c1.585,1.585,2.331,2.331,4.663,4.569H73.4v4.569H85.057V23.905l-4.663-4.569h4.663Z" transform="translate(-57.081 -14.207)"/></g></g></svg>