<svg xmlns="http://www.w3.org/2000/svg" width="75.964" height="75.964" viewBox="0 0 75.964 75.964"><defs><style>.a{fill:#f35045;}</style></defs><path class="a" d="M140.734,158.383c.593.857.956.791,1.417.593s24.2-8.21,24.926-8.473.495-.495.264-.858-8.144-11.111-8.539-11.737-.593-.495-1.22-.3l-25.164,6.548s7.723,13.366,8.317,14.223Z" transform="translate(-93.124 -96.662)"/><path class="a" d="M237.453,141.3V128.717l-7.826,2.084c2.133,2.853,5.467,7.319,7.826,10.5Z" transform="translate(-161.489 -90.522)"/><path class="a" d="M206.194,83.365c-.388.088-8.975,1.64-9.5,1.71s-.353.37-.141.67l7.557,10.369s9.24-2.292,9.8-2.416l.134-.032V92.294c-1.679-2.13-6.255-7.928-6.651-8.47-.476-.653-.811-.547-1.2-.459Z" transform="translate(-138.08 -58.582)"/><path class="a" d="M15.888,8.5c1.86-.084,2.029.339,2.846,1.55L39.26,44.362l25.808-6.182c-1.43-2.027-7.921-11.23-8.549-12.108-.705-.988.018-1.446,1.164-1.64S68.7,22.579,69.55,22.456s1.517-.423,2.892,1.234c.7.848,3.09,3.819,5.328,6.6V14.243A13.72,13.72,0,0,0,73.591,4.179,13.719,13.719,0,0,0,63.527,0H16.05A13.719,13.719,0,0,0,5.985,4.179,13.991,13.991,0,0,0,2.569,9.535c4.652-.382,12.018-.979,13.32-1.039Z" transform="translate(-1.806 0)"/><path class="a" d="M49.937,118.135c-2.176.659-3.152.987-4.57-.992-1.062-1.482-6.8-11.823-9.618-16.921-5.328,1.4-15.078,3.94-17.89,4.616a3.463,3.463,0,0,1-4.367-2C13.176,102.127,5.13,84.781,0,73.651v39.866a13.719,13.719,0,0,0,4.179,10.064,13.72,13.72,0,0,0,10.064,4.179H61.72a14.268,14.268,0,0,0,14.243-14.243v-4.683c-5.828,2.132-24.561,8.857-26.027,9.3Z" transform="translate(0 -51.796)"/><path class="a" d="M17.957,74.856c.771-.177,15.226-3.636,15.535-3.7s.507-.242.176-.815S14.4,37.078,14.4,37.078c-.175-.3-.125-.4-.6-.375-.424.022-11.139.978-13.62,1.186A15.146,15.146,0,0,0,.044,39.47C2.562,44.626,17.017,74.436,17.1,74.679c.088.265.088.353.859.177Z" transform="translate(-0.031 -25.809)"/></svg>