<svg xmlns="http://www.w3.org/2000/svg" width="89.763" height="87.519" viewBox="0 0 89.763 87.519"><defs><style>.a{fill:#001e36;}.b{fill:#31a8ff;}</style></defs><path class="a" d="M15.9,0H73.867a15.882,15.882,0,0,1,15.9,15.9V71.623a15.882,15.882,0,0,1-15.9,15.9H15.9A15.882,15.882,0,0,1,0,71.623V15.9A15.882,15.882,0,0,1,15.9,0Z"/><g transform="translate(20.197 22.254)"><path class="b" d="M54,98.622V60.136c0-.262.112-.411.374-.411.636,0,1.234,0,2.094-.037.9-.037,1.833-.037,2.842-.075s2.094-.037,3.254-.075,2.281-.037,3.4-.037a21.992,21.992,0,0,1,7.7,1.159,13.356,13.356,0,0,1,5.012,3.067,11.909,11.909,0,0,1,2.73,4.264,14.315,14.315,0,0,1,.86,4.862,13.371,13.371,0,0,1-2.244,7.966,12.814,12.814,0,0,1-6.022,4.563,24.24,24.24,0,0,1-8.415,1.272c-.9,0-1.5,0-1.87-.037s-.9-.037-1.608-.037V98.584a.465.465,0,0,1-.411.524H54.449C54.15,99.108,54,98.958,54,98.622Zm8.153-31.679V79.51c.524.037,1.01.075,1.459.075h1.982a13.971,13.971,0,0,0,4.3-.673,6.432,6.432,0,0,0,3.067-1.982,5.779,5.779,0,0,0,1.159-3.852,6.156,6.156,0,0,0-.86-3.329,5.424,5.424,0,0,0-2.618-2.132,10.975,10.975,0,0,0-4.413-.748c-.972,0-1.833,0-2.543.037a8.563,8.563,0,0,0-1.533.037Z" transform="translate(-54 -59.5)"/><path class="b" d="M159.628,92.753a13.237,13.237,0,0,0-3.591-1.272,19.717,19.717,0,0,0-4.189-.486,7.531,7.531,0,0,0-2.244.262,1.921,1.921,0,0,0-1.159.748,1.982,1.982,0,0,0-.3,1.01,1.663,1.663,0,0,0,.374.972A4.22,4.22,0,0,0,149.792,95c.86.449,1.758.86,2.655,1.234a27.09,27.09,0,0,1,5.76,2.73,8.7,8.7,0,0,1,2.955,3.1,8.074,8.074,0,0,1,.86,3.852,8.7,8.7,0,0,1-1.459,4.974,9.372,9.372,0,0,1-4.189,3.329,17.137,17.137,0,0,1-6.77,1.2,25.765,25.765,0,0,1-5.087-.486,15.087,15.087,0,0,1-3.815-1.2.736.736,0,0,1-.411-.711v-6.508a.406.406,0,0,1,.15-.337.285.285,0,0,1,.337.037,16.011,16.011,0,0,0,4.638,1.833,17.412,17.412,0,0,0,4.413.561,7.139,7.139,0,0,0,3.1-.524,1.738,1.738,0,0,0,1.01-1.571,1.982,1.982,0,0,0-.9-1.5,15.862,15.862,0,0,0-3.665-1.758,22.884,22.884,0,0,1-5.311-2.693,9.684,9.684,0,0,1-2.842-3.179,8.025,8.025,0,0,1-.86-3.815,8.8,8.8,0,0,1,1.272-4.526,9.22,9.22,0,0,1,3.927-3.441,14.5,14.5,0,0,1,6.62-1.309,32.243,32.243,0,0,1,4.638.337,13.159,13.159,0,0,1,3.216.86.657.657,0,0,1,.374.337,1.877,1.877,0,0,1,.075.449v6.1a.46.46,0,0,1-.187.374A1,1,0,0,1,159.628,92.753Z" transform="translate(-108.015 -75.025)"/></g></svg>