<svg xmlns="http://www.w3.org/2000/svg" width="95.747" height="86.644" viewBox="0 0 95.747 86.644"><defs><style>.a{fill:#fdb300;}.b{fill:#eb6c00;}.c{fill:#fdad00;}.d{fill:#fdd231;}.e{fill:#feeeb7;}</style></defs><path class="a" d="M47.873,0,20.89,2.853,0,30.9,47.873,86.644,95.747,30.9,74.857,2.853Z" transform="translate(0 0)"/><path class="b" d="M0,82.608l47.873,55.748L19.391,82.608Z" transform="translate(0 -51.711)"/><path class="b" d="M156.482,82.608,128,138.356l47.873-55.748Z" transform="translate(-80.126 -51.711)"/><path class="c" d="M51.846,82.608l28.482,55.748,28.482-55.748Z" transform="translate(-32.455 -51.711)"/><path class="d" d="M53.345,2.853,51.846,30.9,80.328,0Z" transform="translate(-32.455 0)"/><path class="d" d="M156.482,30.9l-1.5-28.043L128,0Z" transform="translate(-80.126 0)"/><path class="c" d="M201.644,35.671h19.391L200.145,7.628Z" transform="translate(-125.288 -4.775)"/><path class="c" d="M0,35.671H19.391l1.5-28.043Z" transform="translate(0 -4.775)"/><path class="e" d="M80.328,0,51.846,30.9h56.965Z" transform="translate(-32.455 0)"/></svg>